<?xml version="1.0" encoding="UTF-8"?>
<svg id="Layer_1" data-name="Layer 1" xmlns="http://www.w3.org/2000/svg" viewBox="0 0 345.5518596493 369.36015287594">
  <defs>
    <style>
      .cls-1 {
        fill: #fff;
      }
    </style>
  </defs>
  <path class="cls-1" d="M137.23954338086,368.32062533799c-18.49542490155-.01030731418-33.14457040865-15.26136271078-33.18505266516-33.43768572628l-.23183888428-104.09445548525-22.16086779675-.10461781407C37.01344372055,230.47308883706.49678733374,195.60800114243.50000021199,150.85812252168l.0032930382-45.86636908274c.00056137507-7.81899102233,2.34169844045-15.1172474546,7.03532711716-21.13652923291,9.18054174203-11.7734638654,24.09041088092-16.85717309562,38.54781918069-12.08613437471,12.80752765308,4.22656738227,23.09145072879,16.58366471494,23.16067053376,31.35823153806l.21952703196,46.85677465822c.03082819034,6.5800988384,5.0899316427,11.60509208518,11.54472808897,11.63707151565l22.85045520443.11320954107.01125040619-91.70760676719c.00465918179-37.97928753329,30.2284494733-68.08024365596,67.38022863971-69.00567479395,37.10452952206-.92425417439,70.10038334756,28.63188779387,70.16295062373,67.04682935586l.30236232844,185.64386831512,22.70440527744-.06403247274c6.48839406444-.01829900017,11.56944264573-5.0927173662,11.6115354223-11.66682473965l.30349400068-47.40010781544c.12002595739-18.74581806587,16.85634153666-32.84990391586,34.79764981316-32.7073433033,18.69827094138.14857539474,33.92666848748,15.36130568897,33.91615729235,34.56130715047l-.02573848478,47.01453442404c-.02342391106,42.78667847663-34.1800197755,77.09461711194-76.8989250205,78.95539055297l-26.42280321713.15464756815-.12214512769,12.51890512912c-.17885683465,18.33140451069-14.84073790307,33.2922341925-33.42420255752,33.28187781465l-70.91849642268-.03952216442ZM166.88623303586,115.83640272569c0-9.4407615395-7.65324937134-17.09401091085-17.09401091084-17.09401091085s-17.09401091085,7.65324937134-17.09401091085,17.09401091085,7.65324937135,17.09401091084,17.09401091085,17.09401091084,17.09401091084-7.65324937134,17.09401091084-17.09401091084ZM212.85146033552,276.64379432165c0-9.45016803345-7.66087484134-17.11104287479-17.11104287479-17.11104287479s-17.11104287478,7.66087484134-17.11104287478,17.11104287479,7.66087484134,17.11104287478,17.11104287478,17.11104287478,17.11104287479-7.66087484134,17.11104287479-17.11104287478Z"/>
</svg>